<?xml version="1.0" encoding="utf-8"?>
<!-- Generator: Adobe Illustrator 24.3.0, SVG Export Plug-In . SVG Version: 6.00 Build 0)  -->
<svg version="1.1" id="Layer_1" xmlns="http://www.w3.org/2000/svg" xmlns:xlink="http://www.w3.org/1999/xlink" x="0px" y="0px"
	 viewBox="0 0 402.706 161.47" style="enable-background:new 0 0 402.706 161.47;" xml:space="preserve">
<style type="text/css">
	.st0{fill:#2FAD6F;}
	.st1{fill:#0A2928;}
	.st2{fill-rule:evenodd;clip-rule:evenodd;fill:#E52521;}
	.st3{fill:#E52521;}
	.st4{fill-rule:evenodd;clip-rule:evenodd;fill:#27316F;}
	.st5{fill-rule:evenodd;clip-rule:evenodd;fill:#FFFFFF;}
	.st6{fill:#FFFFFF;}
	.st7{fill-rule:evenodd;clip-rule:evenodd;fill:#D0043C;}
	.st8{fill-rule:evenodd;clip-rule:evenodd;fill:#004289;}
	.st9{fill:#F8F7F7;}
	.st10{fill:#020203;}
	.st11{fill:#057032;}
	.st12{fill:#E4201B;}
</style>
<path class="st0" d="M137.018,80.488c-4.098-4.012-6.132-8.998-6.132-14.958c0-5.932,2.035-10.918,6.132-14.93
	c4.098-4.012,9.17-6.018,15.274-6.018c5.588,0,10.374,1.69,14.328,5.101s6.247,7.766,6.906,13.038h-9.428
	c-0.602-2.779-1.977-5.043-4.126-6.791c-2.178-1.748-4.728-2.607-7.68-2.607c-3.439,0-6.304,1.175-8.625,3.495
	c-2.321,2.321-3.467,5.244-3.467,8.712c0,3.496,1.146,6.391,3.467,8.711c2.321,2.321,5.187,3.496,8.625,3.496
	c2.952,0,5.502-0.859,7.68-2.607c2.149-1.748,3.525-3.983,4.126-6.763h9.428c-0.659,5.272-2.98,9.6-6.906,13.01
	c-3.955,3.41-8.74,5.13-14.328,5.13C146.188,86.506,141.116,84.5,137.018,80.488z"/>
<path class="st1" d="M204.095,85.79l-2.521-7.106h-16.449l-2.521,7.106h-9.743l15.216-40.491h10.746l15.245,40.491H204.095z
	 M188.076,70.287h10.545l-5.272-14.958L188.076,70.287z"/>
<path class="st1" d="M233.346,45.298c4.041,0,7.422,1.318,10.145,3.926c2.722,2.608,4.069,5.903,4.069,9.858
	c0,3.954-1.348,7.25-4.069,9.857c-2.723,2.607-6.104,3.926-10.145,3.926H227.5V85.79h-9.112V45.298H233.346z M233.116,64.297
	c1.462,0,2.665-0.487,3.64-1.49s1.462-2.234,1.462-3.725s-0.487-2.723-1.462-3.726s-2.178-1.49-3.64-1.49H227.5v10.431H233.116z"/>
<path class="st1" d="M252.454,85.79V45.298h9.112V85.79H252.454z"/>
<path class="st1" d="M302.914,45.298h11.605V85.79h-9.084V60.859L294.977,85.79h-6.219l-10.373-24.816V85.79h-9.112V45.298h11.749
	l10.918,26.278L302.914,45.298z"/>
<path class="st1" d="M350.016,85.79l-2.521-7.106h-16.448l-2.522,7.106h-9.743l15.217-40.491h10.746l15.245,40.491H350.016z
	 M333.997,70.287h10.546l-5.273-14.958L333.997,70.287z"/>
<path class="st1" d="M402.221,85.79h-11.147l-9.514-14.013l-9.484,14.013H360.9l14.385-20.374l-14.127-20.117h11.204l9.313,13.727
	l9.227-13.727h11.09l-14.099,20.117L402.221,85.79z"/>
<g>
	<path class="st0" d="M58.599,44.653l-3.319,8.682l-0.465,1.221H30.979c-10.951,0-19.861,9.287-19.861,20.687
		c0,11.411,8.911,20.687,19.861,20.687h8.002l-3.319,8.682l-0.169,0.44l-0.296,0.781h-4.217c-16.193,0-29.374-13.721-29.374-30.59
		s13.181-30.59,29.374-30.59H58.599z"/>
</g>
<g>
	<g>
		<polygon class="st1" points="73.443,41.979 68.63,54.556 52.796,95.93 49.012,105.833 48.843,106.273 38.442,106.273 
			38.611,105.833 42.395,95.93 58.229,54.556 62.013,44.653 63.038,41.979 68.662,41.979 		"/>
	</g>
</g>
<g>
	<g>
		<polygon class="st1" points="99.245,23.486 67.575,106.273 57.164,106.273 88.832,23.486 		"/>
	</g>
</g>
<g>
	<g>
		<polygon class="st1" points="126.755,0 86.295,106.273 75.894,106.273 116.547,0 		"/>
	</g>
</g>
<g>
	<g>
		<polygon class="st2" points="104.167,131.429 104.109,141.307 60.385,141.234 60.385,161.293 50.697,161.293 50.697,141.218 
			7.003,141.146 7.003,131.268 50.697,131.34 50.697,111.332 60.385,111.332 60.385,131.356 104.167,131.429 		"/>
	</g>
	<g>
		<path class="st3" d="M60.493,161.401h-9.904v-20.075l-43.694-0.072V131.16h0.108l43.586,0.072v-20.009h9.904v20.026l43.782,0.072
			l-0.059,10.094h-0.107l-43.616-0.073V161.401z M50.805,161.184h9.473v-20.059h0.108l43.617,0.073l0.057-9.662l-43.781-0.072
			V111.44h-9.473v20.009h-0.108L7.11,131.376v9.662l43.694,0.072V161.184z"/>
	</g>
</g>
<g>
	<polygon class="st2" points="7.003,115.331 31.605,127.82 39.28,127.82 7.003,111.332 7.003,115.331 	"/>
</g>
<g>
	<polygon class="st2" points="7.003,161.293 39.322,144.603 46.617,144.603 14.379,161.293 7.003,161.293 	"/>
</g>
<g>
	<polygon class="st2" points="104.173,161.293 71.63,144.516 79.093,144.516 104.172,157.568 104.173,161.293 	"/>
</g>
<g>
	<polygon class="st2" points="96.63,111.332 64.244,128.081 71.834,128.081 104.167,111.332 96.63,111.332 	"/>
</g>
<g>
	<polygon class="st4" points="7.003,116.958 28.527,128.059 7.003,128.059 7.003,116.958 	"/>
</g>
<g>
	<polygon class="st4" points="7.003,155.606 28.527,144.505 7.003,144.505 7.003,155.606 	"/>
</g>
<g>
	<polygon class="st4" points="104.167,116.878 82.643,127.98 104.167,127.98 104.167,116.878 	"/>
</g>
<g>
	<polygon class="st4" points="104.167,155.759 82.643,144.657 104.167,144.657 104.167,155.759 	"/>
</g>
<g>
	<polygon class="st4" points="93.229,111.332 63.711,126.722 63.711,111.332 93.229,111.332 	"/>
</g>
<g>
	<polygon class="st4" points="17.914,111.332 47.433,126.722 47.433,111.332 17.914,111.332 	"/>
</g>
<g>
	<polygon class="st4" points="17.904,161.293 47.422,145.903 47.422,161.293 17.904,161.293 	"/>
</g>
<g>
	<polygon class="st4" points="93.225,161.293 63.707,145.903 63.707,161.293 93.225,161.293 	"/>
</g>
<g>
	<polygon class="st5" points="7.003,131.268 50.697,131.268 50.697,111.332 47.433,111.332 47.433,126.722 17.914,111.332 
		7.003,111.332 39.28,127.82 31.605,127.82 7.003,115.331 7.003,116.958 28.527,128.059 7.003,128.059 7.003,131.268 	"/>
	<path class="st6" d="M50.805,131.376H6.895v-3.426h21.188L6.895,117.023v-1.867l0.157,0.079l24.58,12.478h7.2L6.953,111.428
		l0.049-0.204l10.962,0.013l29.36,15.308v-15.321h3.48V131.376z M7.11,131.16h43.479v-19.72h-3.048v15.46l-0.158-0.082
		l-29.495-15.377H7.451l31.878,16.284l-0.049,0.204l-7.723-0.012L7.11,115.507v1.385l21.466,11.071l-0.049,0.204H7.11V131.16z"/>
</g>
<g>
	<polygon class="st5" points="60.385,111.332 60.385,131.356 104.167,131.429 104.167,127.98 82.643,127.98 104.167,116.878 
		104.167,111.332 71.834,128.081 64.244,128.081 96.63,111.332 93.229,111.332 63.711,126.722 63.711,111.332 60.385,111.332 	"/>
	<path class="st6" d="M104.275,131.538h-0.108l-43.89-0.073v-20.133h0.108l0.002-0.108c0.047,0.001,2.194,0.001,3.323,0.001h0.108
		v15.32l29.41-15.321h3.4l0.05,0.204l-31.991,16.545h7.12l32.467-16.818v5.79l-0.059,0.03l-21.129,10.897h21.188L104.275,131.538z
		 M60.493,131.25l43.566,0.071l0-3.232H82.643l-0.049-0.204l21.466-11.071v-5.304l-32.225,16.68h-7.59l-0.05-0.204l31.991-16.545
		h-2.93L63.603,126.9v-15.459l-1.555-0.001c-0.893,0-1.335,0-1.555-0.014V131.25z"/>
</g>
<g>
	<polygon class="st5" points="7.003,141.146 50.697,141.146 50.697,161.293 47.422,161.293 47.422,145.903 17.904,161.293 
		14.379,161.293 46.617,144.603 39.322,144.603 7.003,161.293 7.003,155.606 28.527,144.505 7.003,144.505 7.003,141.146 	"/>
	<path class="st6" d="M6.895,161.47v-5.93l0.059-0.03l21.129-10.897H6.895v-3.575h43.91v20.363h-3.491v-15.32l-29.41,15.32H14.38
		l-0.05-0.204l31.844-16.485h-6.825L6.895,161.47z M47.53,161.184h3.059v-19.93H7.11v3.142h21.417l0.049,0.204L7.11,155.671v5.443
		l32.212-16.62h7.295l0.05,0.204l-31.844,16.485h3.055l29.652-15.459V161.184z"/>
</g>
<g>
	<polygon class="st5" points="104.104,141.312 60.385,141.234 60.385,161.293 63.707,161.293 63.707,145.903 93.225,161.293 
		104.171,161.294 71.623,144.516 79.087,144.516 104.167,157.569 104.167,155.759 82.643,144.657 104.092,144.657 104.104,141.312 	
		"/>
	<path class="st6" d="M104.172,161.403l-10.996-0.015l-29.36-15.308v15.32h-3.538v-20.275h0.108l43.827,0.079l-0.013,3.561H83.088
		l21.188,10.928v2.054l-25.214-13.122h-6.992l32.152,16.574L104.172,161.403z M93.252,161.184l10.475,0.002l-32.152-16.574
		l0.049-0.204l7.514,0.013l24.922,12.971v-1.567l-21.466-11.071l0.049-0.204h21.342l0.011-3.129l-43.502-0.077v19.842h3.106v-15.459
		l0.158,0.082L93.252,161.184z"/>
</g>
<rect x="130.886" y="130.519" class="st0" width="271.329" height="11.587"/>
<g>
	<path class="st1" d="M155.332,99.211h5.146v-4.573h2.034v11.106h-2.034v-4.831h-5.146v4.831h-2.034V94.637h2.034V99.211z"/>
	<path class="st1" d="M201.658,100.191c0,0.846-0.12,1.622-0.361,2.328c-0.24,0.705-0.592,1.312-1.054,1.822
		c-0.462,0.509-1.029,0.904-1.702,1.187c-0.672,0.282-1.437,0.423-2.295,0.423s-1.623-0.141-2.295-0.423
		c-0.673-0.282-1.24-0.678-1.702-1.187c-0.462-0.51-0.813-1.117-1.054-1.822c-0.241-0.706-0.361-1.482-0.361-2.328
		c0-0.848,0.12-1.623,0.361-2.329c0.24-0.705,0.592-1.312,1.054-1.821c0.462-0.51,1.029-0.905,1.702-1.188
		c0.672-0.282,1.437-0.424,2.295-0.424s1.623,0.142,2.295,0.424c0.673,0.282,1.24,0.678,1.702,1.188
		c0.462,0.509,0.813,1.116,1.054,1.821C201.538,98.568,201.658,99.343,201.658,100.191z M199.558,100.191
		c0-0.676-0.083-1.267-0.249-1.772c-0.166-0.507-0.396-0.929-0.689-1.267c-0.293-0.337-0.642-0.589-1.046-0.755
		s-0.847-0.249-1.328-0.249s-0.924,0.083-1.328,0.249s-0.752,0.418-1.046,0.755c-0.293,0.338-0.523,0.76-0.689,1.267
		c-0.166,0.506-0.249,1.097-0.249,1.772c0,0.675,0.083,1.266,0.249,1.771c0.166,0.507,0.396,0.927,0.689,1.262
		s0.642,0.587,1.046,0.756s0.847,0.253,1.328,0.253s0.924-0.084,1.328-0.253s0.752-0.421,1.046-0.756s0.523-0.755,0.689-1.262
		C199.475,101.457,199.558,100.866,199.558,100.191z"/>
	<path class="st1" d="M232.015,94.637v9.405h5.196v1.701h-7.23V94.637H232.015z"/>
	<path class="st1" d="M265.284,105.744V94.637h2.938c0.26,0,0.524,0.009,0.793,0.024c0.268,0.018,0.529,0.042,0.784,0.075
		c0.254,0.033,0.501,0.073,0.738,0.12c0.238,0.047,0.457,0.104,0.656,0.17c0.592,0.188,1.115,0.443,1.568,0.764
		c0.454,0.321,0.835,0.7,1.142,1.138c0.308,0.438,0.54,0.926,0.697,1.465c0.158,0.54,0.236,1.125,0.236,1.756
		c0,0.598-0.066,1.158-0.199,1.681c-0.133,0.523-0.335,1-0.605,1.432c-0.271,0.432-0.613,0.812-1.025,1.142s-0.9,0.6-1.465,0.81
		c-0.471,0.177-1.005,0.31-1.603,0.398s-1.27,0.133-2.017,0.133H265.284z M268.156,104.043c1.189,0,2.119-0.164,2.789-0.49
		c0.592-0.293,1.04-0.72,1.345-1.278c0.304-0.559,0.456-1.272,0.456-2.142c0-0.454-0.05-0.863-0.149-1.229s-0.243-0.69-0.432-0.976
		c-0.188-0.285-0.416-0.529-0.685-0.734s-0.571-0.374-0.909-0.507c-0.315-0.121-0.667-0.21-1.054-0.266
		c-0.388-0.055-0.822-0.082-1.304-0.082h-0.896v7.703H268.156z"/>
	<path class="st1" d="M303.16,105.744V94.637h2.034v11.106H303.16z"/>
	<path class="st1" d="M339.8,99.801c0.797,1.135,1.445,2.142,1.943,3.021h0.049c-0.066-1.444-0.1-2.496-0.1-3.154v-5.03h2.034
		v11.106h-2.134l-3.619-5.113c-0.636-0.886-1.295-1.912-1.975-3.08h-0.051c0.066,1.361,0.1,2.416,0.1,3.163v5.03h-2.033V94.637
		h2.133L339.8,99.801z"/>
	<path class="st1" d="M379.453,101.502h-2.49v-1.701h4.523v5.604c-0.166,0.061-0.377,0.124-0.635,0.19
		c-0.257,0.066-0.545,0.126-0.863,0.179s-0.646,0.096-0.983,0.129s-0.673,0.049-1.005,0.049c-0.996,0-1.866-0.134-2.61-0.402
		s-1.364-0.646-1.859-1.133s-0.866-1.066-1.112-1.739c-0.246-0.672-0.369-1.415-0.369-2.229c0-0.575,0.065-1.125,0.195-1.647
		c0.13-0.523,0.32-1.008,0.572-1.453s0.558-0.848,0.918-1.207c0.359-0.36,0.771-0.667,1.232-0.922s0.968-0.449,1.519-0.585
		s1.142-0.204,1.772-0.204c0.559,0,1.09,0.041,1.594,0.121s0.916,0.178,1.236,0.295v1.727c-0.432-0.139-0.867-0.244-1.307-0.316
		c-0.44-0.071-0.885-0.107-1.332-0.107c-0.604,0-1.168,0.09-1.693,0.27c-0.526,0.18-0.981,0.445-1.366,0.797
		s-0.688,0.785-0.909,1.299c-0.221,0.516-0.332,1.11-0.332,1.785c0.006,1.312,0.35,2.295,1.029,2.951
		c0.682,0.655,1.646,0.983,2.897,0.983c0.232,0,0.474-0.013,0.722-0.037c0.25-0.025,0.468-0.057,0.656-0.096V101.502z"/>
</g>
</svg>
